solid OpenSCAD_Model
  facet normal 0.92388 0.382683 0
    outer loop
      vertex 12.65 2.925 15
      vertex 11.9178 4.69277 5
      vertex 11.9178 4.69277 15
    endloop
  endfacet
  facet normal 0.92388 0.382683 0
    outer loop
      vertex 11.9178 4.69277 5
      vertex 12.65 2.925 15
      vertex 12.65 2.925 5
    endloop
  endfacet
  facet normal -0.92388 0.382683 0
    outer loop
      vertex 7.65 2.925 5
      vertex 8.38223 4.69277 15
      vertex 8.38223 4.69277 5
    endloop
  endfacet
  facet normal -0.92388 0.382683 0
    outer loop
      vertex 8.38223 4.69277 15
      vertex 7.65 2.925 5
      vertex 7.65 2.925 15
    endloop
  endfacet
  facet normal 0.382683 0.92388 -0
    outer loop
      vertex 11.9178 4.69277 5
      vertex 10.15 5.425 15
      vertex 11.9178 4.69277 15
    endloop
  endfacet
  facet normal 0.382683 0.92388 0
    outer loop
      vertex 10.15 5.425 15
      vertex 11.9178 4.69277 5
      vertex 10.15 5.425 5
    endloop
  endfacet
  facet normal 0 0 1
    outer loop
      vertex -3.16099 23.675 5
      vertex -10.15 28.575 5
      vertex -3.16099 10.325 5
    endloop
  endfacet
  facet normal 0 0 1
    outer loop
      vertex -3.16099 10.325 5
      vertex -8.38223 4.69277 5
      vertex -7.65 2.925 5
    endloop
  endfacet
  facet normal 0 0 1
    outer loop
      vertex -10.15 5.425 5
      vertex -3.16099 10.325 5
      vertex -10.15 28.575 5
    endloop
  endfacet
  facet normal 0 0 1
    outer loop
      vertex -3.16099 10.325 5
      vertex -10.15 5.425 5
      vertex -8.38223 4.69277 5
    endloop
  endfacet
  facet normal 0 0 1
    outer loop
      vertex -11.9178 29.3072 5
      vertex -10.15 5.425 5
      vertex -10.15 28.575 5
    endloop
  endfacet
  facet normal 0 0 1
    outer loop
      vertex -11.9178 29.3072 5
      vertex -11.9178 4.69277 5
      vertex -10.15 5.425 5
    endloop
  endfacet
  facet normal 0 0 1
    outer loop
      vertex -12.65 31.075 5
      vertex -11.9178 4.69277 5
      vertex -11.9178 29.3072 5
    endloop
  endfacet
  facet normal 0 0 1
    outer loop
      vertex -11.9178 4.69277 5
      vertex -12.65 31.075 5
      vertex -12.65 2.925 5
    endloop
  endfacet
  facet normal -0 0 1
    outer loop
      vertex 3.16099 10.325 5
      vertex 10.15 5.425 5
      vertex 3.16099 23.675 5
    endloop
  endfacet
  facet normal 0 0 1
    outer loop
      vertex 10.15 5.425 5
      vertex 3.16099 10.325 5
      vertex 3.65 8.5 5
    endloop
  endfacet
  facet normal -0 0 1
    outer loop
      vertex 1.825 22.339 5
      vertex 3.16099 10.325 5
      vertex 3.16099 23.675 5
    endloop
  endfacet
  facet normal 0 0 1
    outer loop
      vertex 1.825 22.339 5
      vertex 1.825 11.661 5
      vertex 3.16099 10.325 5
    endloop
  endfacet
  facet normal -0 0 1
    outer loop
      vertex 0 21.85 5
      vertex 1.825 11.661 5
      vertex 1.825 22.339 5
    endloop
  endfacet
  facet normal 0 0 1
    outer loop
      vertex 0 21.85 5
      vertex 0 12.15 5
      vertex 1.825 11.661 5
    endloop
  endfacet
  facet normal 0 0 1
    outer loop
      vertex -1.825 22.339 5
      vertex 0 12.15 5
      vertex 0 21.85 5
    endloop
  endfacet
  facet normal 0 0 1
    outer loop
      vertex -1.825 22.339 5
      vertex -1.825 11.661 5
      vertex 0 12.15 5
    endloop
  endfacet
  facet normal 0 0 1
    outer loop
      vertex -3.16099 23.675 5
      vertex -1.825 11.661 5
      vertex -1.825 22.339 5
    endloop
  endfacet
  facet normal 0 0 1
    outer loop
      vertex -3.16099 23.675 5
      vertex -3.16099 10.325 5
      vertex -1.825 11.661 5
    endloop
  endfacet
  facet normal 0 0 1
    outer loop
      vertex -3.16099 27.325 5
      vertex -8.38223 29.3072 5
      vertex -3.65 25.5 5
    endloop
  endfacet
  facet normal -0 0 1
    outer loop
      vertex -10.15 28.575 5
      vertex -3.65 25.5 5
      vertex -8.38223 29.3072 5
    endloop
  endfacet
  facet normal -0 0 1
    outer loop
      vertex 11.9178 29.3072 5
      vertex 12.65 2.925 5
      vertex 12.65 31.075 5
    endloop
  endfacet
  facet normal 0 0 1
    outer loop
      vertex 11.9178 29.3072 5
      vertex 11.9178 4.69277 5
      vertex 12.65 2.925 5
    endloop
  endfacet
  facet normal -0 0 1
    outer loop
      vertex 10.15 28.575 5
      vertex 11.9178 4.69277 5
      vertex 11.9178 29.3072 5
    endloop
  endfacet
  facet normal 0 0 1
    outer loop
      vertex 10.15 28.575 5
      vertex 10.15 5.425 5
      vertex 11.9178 4.69277 5
    endloop
  endfacet
  facet normal 0 0 1
    outer loop
      vertex 3.65 25.5 5
      vertex 10.15 28.575 5
      vertex 8.38223 29.3072 5
    endloop
  endfacet
  facet normal 0 0 1
    outer loop
      vertex 3.16099 23.675 5
      vertex 10.15 28.575 5
      vertex 3.65 25.5 5
    endloop
  endfacet
  facet normal 0 0 1
    outer loop
      vertex 3.16099 27.325 5
      vertex 8.38223 29.3072 5
      vertex 7.65 31.075 5
    endloop
  endfacet
  facet normal 0 0 1
    outer loop
      vertex 10.15 28.575 5
      vertex 3.16099 23.675 5
      vertex 10.15 5.425 5
    endloop
  endfacet
  facet normal 0 0 1
    outer loop
      vertex 13 34 5
      vertex 12.65 31.075 5
      vertex 13 0 5
    endloop
  endfacet
  facet normal 0 0 1
    outer loop
      vertex 13 34 5
      vertex 11.9178 32.8428 5
      vertex 12.65 31.075 5
    endloop
  endfacet
  facet normal 0 0 1
    outer loop
      vertex 13 34 5
      vertex 10.15 33.575 5
      vertex 11.9178 32.8428 5
    endloop
  endfacet
  facet normal 0 0 1
    outer loop
      vertex 10.15 5.425 5
      vertex 3.65 8.5 5
      vertex 8.38223 4.69277 5
    endloop
  endfacet
  facet normal 0 0 1
    outer loop
      vertex 1.825 28.661 5
      vertex 7.65 31.075 5
      vertex 8.38223 32.8428 5
    endloop
  endfacet
  facet normal 0 0 1
    outer loop
      vertex 8.38223 29.3072 5
      vertex 3.16099 27.325 5
      vertex 3.65 25.5 5
    endloop
  endfacet
  facet normal 0 0 1
    outer loop
      vertex 7.65 31.075 5
      vertex 1.825 28.661 5
      vertex 3.16099 27.325 5
    endloop
  endfacet
  facet normal 0 0 1
    outer loop
      vertex 8.38223 32.8428 5
      vertex 0 29.15 5
      vertex 1.825 28.661 5
    endloop
  endfacet
  facet normal -0 0 1
    outer loop
      vertex -8.38223 32.8428 5
      vertex 0 29.15 5
      vertex 8.38223 32.8428 5
    endloop
  endfacet
  facet normal 0 0 1
    outer loop
      vertex -8.38223 32.8428 5
      vertex 8.38223 32.8428 5
      vertex 10.15 33.575 5
    endloop
  endfacet
  facet normal 0 0 1
    outer loop
      vertex -3.65 25.5 5
      vertex -10.15 28.575 5
      vertex -3.16099 23.675 5
    endloop
  endfacet
  facet normal -0 0 1
    outer loop
      vertex -8.38223 29.3072 5
      vertex -3.16099 27.325 5
      vertex -7.65 31.075 5
    endloop
  endfacet
  facet normal 0 0 1
    outer loop
      vertex -1.825 28.661 5
      vertex -7.65 31.075 5
      vertex -3.16099 27.325 5
    endloop
  endfacet
  facet normal 0 0 1
    outer loop
      vertex 0 29.15 5
      vertex -8.38223 32.8428 5
      vertex -1.825 28.661 5
    endloop
  endfacet
  facet normal 0 0 1
    outer loop
      vertex -10.15 33.575 5
      vertex 10.15 33.575 5
      vertex 13 34 5
    endloop
  endfacet
  facet normal 0 0 1
    outer loop
      vertex -1.825 28.661 5
      vertex -8.38223 32.8428 5
      vertex -7.65 31.075 5
    endloop
  endfacet
  facet normal 0 0 1
    outer loop
      vertex 10.15 33.575 5
      vertex -10.15 33.575 5
      vertex -8.38223 32.8428 5
    endloop
  endfacet
  facet normal 0 0 1
    outer loop
      vertex -12.65 31.075 5
      vertex -13 34 5
      vertex -12.65 2.925 5
    endloop
  endfacet
  facet normal 0 0 1
    outer loop
      vertex -11.9178 32.8428 5
      vertex -13 34 5
      vertex -12.65 31.075 5
    endloop
  endfacet
  facet normal 0 0 1
    outer loop
      vertex -10.15 33.575 5
      vertex -13 34 5
      vertex -11.9178 32.8428 5
    endloop
  endfacet
  facet normal -0 0 1
    outer loop
      vertex -13 34 5
      vertex -10.15 33.575 5
      vertex 13 34 5
    endloop
  endfacet
  facet normal -0 0 1
    outer loop
      vertex 12.65 2.925 5
      vertex 13 0 5
      vertex 12.65 31.075 5
    endloop
  endfacet
  facet normal -0 0 1
    outer loop
      vertex 11.9178 1.15723 5
      vertex 13 0 5
      vertex 12.65 2.925 5
    endloop
  endfacet
  facet normal -0 0 1
    outer loop
      vertex 10.15 0.425 5
      vertex 13 0 5
      vertex 11.9178 1.15723 5
    endloop
  endfacet
  facet normal -0 0 1
    outer loop
      vertex 3.16099 6.675 5
      vertex 8.38223 4.69277 5
      vertex 3.65 8.5 5
    endloop
  endfacet
  facet normal 0 0 1
    outer loop
      vertex 8.38223 4.69277 5
      vertex 3.16099 6.675 5
      vertex 7.65 2.925 5
    endloop
  endfacet
  facet normal -0 0 1
    outer loop
      vertex 1.825 5.33901 5
      vertex 7.65 2.925 5
      vertex 3.16099 6.675 5
    endloop
  endfacet
  facet normal 0 0 1
    outer loop
      vertex 7.65 2.925 5
      vertex 1.825 5.33901 5
      vertex 8.38223 1.15723 5
    endloop
  endfacet
  facet normal -0 0 1
    outer loop
      vertex 0 4.85 5
      vertex 8.38223 1.15723 5
      vertex 1.825 5.33901 5
    endloop
  endfacet
  facet normal 0 0 1
    outer loop
      vertex -8.38223 1.15723 5
      vertex 0 4.85 5
      vertex -1.825 5.33901 5
    endloop
  endfacet
  facet normal 0 0 1
    outer loop
      vertex 0 4.85 5
      vertex -8.38223 1.15723 5
      vertex 8.38223 1.15723 5
    endloop
  endfacet
  facet normal 0 0 1
    outer loop
      vertex -3.16099 10.325 5
      vertex -7.65 2.925 5
      vertex -3.65 8.5 5
    endloop
  endfacet
  facet normal 0 0 1
    outer loop
      vertex -7.65 2.925 5
      vertex -3.16099 6.675 5
      vertex -3.65 8.5 5
    endloop
  endfacet
  facet normal 0 0 1
    outer loop
      vertex -7.65 2.925 5
      vertex -1.825 5.33901 5
      vertex -3.16099 6.675 5
    endloop
  endfacet
  facet normal 0 0 1
    outer loop
      vertex -8.38223 1.15723 5
      vertex -1.825 5.33901 5
      vertex -7.65 2.925 5
    endloop
  endfacet
  facet normal 0 0 1
    outer loop
      vertex 8.38223 1.15723 5
      vertex -8.38223 1.15723 5
      vertex 10.15 0.425 5
    endloop
  endfacet
  facet normal 0 0 1
    outer loop
      vertex -10.15 0.425 5
      vertex 10.15 0.425 5
      vertex -8.38223 1.15723 5
    endloop
  endfacet
  facet normal 0 0 1
    outer loop
      vertex 10.15 0.425 5
      vertex -10.15 0.425 5
      vertex 13 0 5
    endloop
  endfacet
  facet normal 0 0 1
    outer loop
      vertex -10.15 0.425 5
      vertex -13 0 5
      vertex 13 0 5
    endloop
  endfacet
  facet normal 0 0 1
    outer loop
      vertex -11.9178 1.15723 5
      vertex -13 0 5
      vertex -10.15 0.425 5
    endloop
  endfacet
  facet normal 0 0 1
    outer loop
      vertex -12.65 2.925 5
      vertex -13 0 5
      vertex -11.9178 1.15723 5
    endloop
  endfacet
  facet normal 0 0 1
    outer loop
      vertex -13 0 5
      vertex -12.65 2.925 5
      vertex -13 34 5
    endloop
  endfacet
  facet normal -0.382683 0.92388 0
    outer loop
      vertex 10.15 5.425 5
      vertex 8.38223 4.69277 15
      vertex 10.15 5.425 15
    endloop
  endfacet
  facet normal -0.382683 0.92388 0
    outer loop
      vertex 8.38223 4.69277 15
      vertex 10.15 5.425 5
      vertex 8.38223 4.69277 5
    endloop
  endfacet
  facet normal 0.382683 -0.92388 0
    outer loop
      vertex 10.15 0.425 5
      vertex 11.9178 1.15723 15
      vertex 10.15 0.425 15
    endloop
  endfacet
  facet normal 0.382683 -0.92388 0
    outer loop
      vertex 11.9178 1.15723 15
      vertex 10.15 0.425 5
      vertex 11.9178 1.15723 5
    endloop
  endfacet
  facet normal -0.92388 -0.382683 0
    outer loop
      vertex 8.38223 1.15723 5
      vertex 7.65 2.925 15
      vertex 7.65 2.925 5
    endloop
  endfacet
  facet normal -0.92388 -0.382683 0
    outer loop
      vertex 7.65 2.925 15
      vertex 8.38223 1.15723 5
      vertex 8.38223 1.15723 15
    endloop
  endfacet
  facet normal 0.92388 -0.382683 0
    outer loop
      vertex 11.9178 1.15723 15
      vertex 12.65 2.925 5
      vertex 12.65 2.925 15
    endloop
  endfacet
  facet normal 0.92388 -0.382683 0
    outer loop
      vertex 12.65 2.925 5
      vertex 11.9178 1.15723 15
      vertex 11.9178 1.15723 5
    endloop
  endfacet
  facet normal -0.382683 -0.92388 0
    outer loop
      vertex 8.38223 1.15723 5
      vertex 10.15 0.425 15
      vertex 8.38223 1.15723 15
    endloop
  endfacet
  facet normal -0.382683 -0.92388 -0
    outer loop
      vertex 10.15 0.425 15
      vertex 8.38223 1.15723 5
      vertex 10.15 0.425 5
    endloop
  endfacet
  facet normal 0 0 1
    outer loop
      vertex 11.6 2.925 15
      vertex 12.65 2.925 15
      vertex 11.9178 4.69277 15
    endloop
  endfacet
  facet normal 0 0 1
    outer loop
      vertex 12.65 2.925 15
      vertex 11.6 2.925 15
      vertex 11.9178 1.15723 15
    endloop
  endfacet
  facet normal 0 0 1
    outer loop
      vertex 11.9178 4.69277 15
      vertex 10.5981 4.30403 15
      vertex 11.6 2.925 15
    endloop
  endfacet
  facet normal 0 0 1
    outer loop
      vertex 10.15 5.425 15
      vertex 10.5981 4.30403 15
      vertex 11.9178 4.69277 15
    endloop
  endfacet
  facet normal 0 0 1
    outer loop
      vertex 10.15 5.425 15
      vertex 8.97693 3.77729 15
      vertex 10.5981 4.30403 15
    endloop
  endfacet
  facet normal 0 0 1
    outer loop
      vertex 7.65 2.925 15
      vertex 8.97693 3.77729 15
      vertex 8.38223 4.69277 15
    endloop
  endfacet
  facet normal -0 0 1
    outer loop
      vertex 8.38223 4.69277 15
      vertex 8.97693 3.77729 15
      vertex 10.15 5.425 15
    endloop
  endfacet
  facet normal -0 0 1
    outer loop
      vertex 10.5981 1.54597 15
      vertex 11.9178 1.15723 15
      vertex 11.6 2.925 15
    endloop
  endfacet
  facet normal 0 0 1
    outer loop
      vertex 10.5981 1.54597 15
      vertex 10.15 0.425 15
      vertex 11.9178 1.15723 15
    endloop
  endfacet
  facet normal 0 0 1
    outer loop
      vertex 8.97693 2.07271 15
      vertex 10.15 0.425 15
      vertex 10.5981 1.54597 15
    endloop
  endfacet
  facet normal 0 0 1
    outer loop
      vertex 8.97693 2.07271 15
      vertex 8.38223 1.15723 15
      vertex 10.15 0.425 15
    endloop
  endfacet
  facet normal 0 0 1
    outer loop
      vertex 8.97693 3.77729 15
      vertex 7.65 2.925 15
      vertex 8.97693 2.07271 15
    endloop
  endfacet
  facet normal 0 0 1
    outer loop
      vertex 8.97693 2.07271 15
      vertex 7.65 2.925 15
      vertex 8.38223 1.15723 15
    endloop
  endfacet
  facet normal 0.809017 0.587785 0
    outer loop
      vertex 11.6 2.925 17
      vertex 10.5981 4.30403 15
      vertex 10.5981 4.30403 17
    endloop
  endfacet
  facet normal 0.809017 0.587785 0
    outer loop
      vertex 10.5981 4.30403 15
      vertex 11.6 2.925 17
      vertex 11.6 2.925 15
    endloop
  endfacet
  facet normal -1 0 0
    outer loop
      vertex 8.97693 2.07271 15
      vertex 8.97693 3.77729 17
      vertex 8.97693 3.77729 15
    endloop
  endfacet
  facet normal -1 -0 0
    outer loop
      vertex 8.97693 3.77729 17
      vertex 8.97693 2.07271 15
      vertex 8.97693 2.07271 17
    endloop
  endfacet
  facet normal -0.309017 0.951056 0
    outer loop
      vertex 10.5981 4.30403 15
      vertex 8.97693 3.77729 17
      vertex 10.5981 4.30403 17
    endloop
  endfacet
  facet normal -0.309017 0.951056 0
    outer loop
      vertex 8.97693 3.77729 17
      vertex 10.5981 4.30403 15
      vertex 8.97693 3.77729 15
    endloop
  endfacet
  facet normal 0 0 1
    outer loop
      vertex 10.5981 4.30403 17
      vertex 10.5981 1.54597 17
      vertex 11.6 2.925 17
    endloop
  endfacet
  facet normal -0 0 1
    outer loop
      vertex 8.97693 3.77729 17
      vertex 10.5981 1.54597 17
      vertex 10.5981 4.30403 17
    endloop
  endfacet
  facet normal 0 0 1
    outer loop
      vertex 10.5981 1.54597 17
      vertex 8.97693 3.77729 17
      vertex 8.97693 2.07271 17
    endloop
  endfacet
  facet normal 0.809017 -0.587786 0
    outer loop
      vertex 10.5981 1.54597 17
      vertex 11.6 2.925 15
      vertex 11.6 2.925 17
    endloop
  endfacet
  facet normal 0.809017 -0.587786 0
    outer loop
      vertex 11.6 2.925 15
      vertex 10.5981 1.54597 17
      vertex 10.5981 1.54597 15
    endloop
  endfacet
  facet normal -0.309017 -0.951057 0
    outer loop
      vertex 8.97693 2.07271 15
      vertex 10.5981 1.54597 17
      vertex 8.97693 2.07271 17
    endloop
  endfacet
  facet normal -0.309017 -0.951057 -0
    outer loop
      vertex 10.5981 1.54597 17
      vertex 8.97693 2.07271 15
      vertex 10.5981 1.54597 15
    endloop
  endfacet
  facet normal 0.92388 0.382683 0
    outer loop
      vertex -7.65 2.925 15
      vertex -8.38223 4.69277 5
      vertex -8.38223 4.69277 15
    endloop
  endfacet
  facet normal 0.92388 0.382683 0
    outer loop
      vertex -8.38223 4.69277 5
      vertex -7.65 2.925 15
      vertex -7.65 2.925 5
    endloop
  endfacet
  facet normal -0.92388 0.382683 0
    outer loop
      vertex -12.65 2.925 5
      vertex -11.9178 4.69277 15
      vertex -11.9178 4.69277 5
    endloop
  endfacet
  facet normal -0.92388 0.382683 0
    outer loop
      vertex -11.9178 4.69277 15
      vertex -12.65 2.925 5
      vertex -12.65 2.925 15
    endloop
  endfacet
  facet normal 0.382683 0.92388 -0
    outer loop
      vertex -8.38223 4.69277 5
      vertex -10.15 5.425 15
      vertex -8.38223 4.69277 15
    endloop
  endfacet
  facet normal 0.382683 0.92388 0
    outer loop
      vertex -10.15 5.425 15
      vertex -8.38223 4.69277 5
      vertex -10.15 5.425 5
    endloop
  endfacet
  facet normal -0.382683 0.92388 0
    outer loop
      vertex -10.15 5.425 5
      vertex -11.9178 4.69277 15
      vertex -10.15 5.425 15
    endloop
  endfacet
  facet normal -0.382683 0.92388 0
    outer loop
      vertex -11.9178 4.69277 15
      vertex -10.15 5.425 5
      vertex -11.9178 4.69277 5
    endloop
  endfacet
  facet normal 0.382683 -0.92388 0
    outer loop
      vertex -10.15 0.425 5
      vertex -8.38223 1.15723 15
      vertex -10.15 0.425 15
    endloop
  endfacet
  facet normal 0.382683 -0.92388 0
    outer loop
      vertex -8.38223 1.15723 15
      vertex -10.15 0.425 5
      vertex -8.38223 1.15723 5
    endloop
  endfacet
  facet normal -0.92388 -0.382683 0
    outer loop
      vertex -11.9178 1.15723 5
      vertex -12.65 2.925 15
      vertex -12.65 2.925 5
    endloop
  endfacet
  facet normal -0.92388 -0.382683 0
    outer loop
      vertex -12.65 2.925 15
      vertex -11.9178 1.15723 5
      vertex -11.9178 1.15723 15
    endloop
  endfacet
  facet normal 0.92388 -0.382683 0
    outer loop
      vertex -8.38223 1.15723 15
      vertex -7.65 2.925 5
      vertex -7.65 2.925 15
    endloop
  endfacet
  facet normal 0.92388 -0.382683 0
    outer loop
      vertex -7.65 2.925 5
      vertex -8.38223 1.15723 15
      vertex -8.38223 1.15723 5
    endloop
  endfacet
  facet normal -0.382683 -0.92388 0
    outer loop
      vertex -11.9178 1.15723 5
      vertex -10.15 0.425 15
      vertex -11.9178 1.15723 15
    endloop
  endfacet
  facet normal -0.382683 -0.92388 -0
    outer loop
      vertex -10.15 0.425 15
      vertex -11.9178 1.15723 5
      vertex -10.15 0.425 5
    endloop
  endfacet
  facet normal 0 0 1
    outer loop
      vertex -8.7 2.925 15
      vertex -7.65 2.925 15
      vertex -8.38223 4.69277 15
    endloop
  endfacet
  facet normal 0 0 1
    outer loop
      vertex -7.65 2.925 15
      vertex -8.7 2.925 15
      vertex -8.38223 1.15723 15
    endloop
  endfacet
  facet normal 0 0 1
    outer loop
      vertex -8.38223 4.69277 15
      vertex -9.70193 4.30403 15
      vertex -8.7 2.925 15
    endloop
  endfacet
  facet normal 0 0 1
    outer loop
      vertex -10.15 5.425 15
      vertex -9.70193 4.30403 15
      vertex -8.38223 4.69277 15
    endloop
  endfacet
  facet normal 0 0 1
    outer loop
      vertex -10.15 5.425 15
      vertex -11.3231 3.77729 15
      vertex -9.70193 4.30403 15
    endloop
  endfacet
  facet normal 0 0 1
    outer loop
      vertex -12.65 2.925 15
      vertex -11.3231 3.77729 15
      vertex -11.9178 4.69277 15
    endloop
  endfacet
  facet normal -0 0 1
    outer loop
      vertex -11.9178 4.69277 15
      vertex -11.3231 3.77729 15
      vertex -10.15 5.425 15
    endloop
  endfacet
  facet normal -0 0 1
    outer loop
      vertex -9.70193 1.54597 15
      vertex -8.38223 1.15723 15
      vertex -8.7 2.925 15
    endloop
  endfacet
  facet normal 0 0 1
    outer loop
      vertex -9.70193 1.54597 15
      vertex -10.15 0.425 15
      vertex -8.38223 1.15723 15
    endloop
  endfacet
  facet normal 0 0 1
    outer loop
      vertex -11.3231 2.07271 15
      vertex -10.15 0.425 15
      vertex -9.70193 1.54597 15
    endloop
  endfacet
  facet normal 0 0 1
    outer loop
      vertex -11.3231 2.07271 15
      vertex -11.9178 1.15723 15
      vertex -10.15 0.425 15
    endloop
  endfacet
  facet normal 0 0 1
    outer loop
      vertex -11.3231 3.77729 15
      vertex -12.65 2.925 15
      vertex -11.3231 2.07271 15
    endloop
  endfacet
  facet normal 0 0 1
    outer loop
      vertex -11.3231 2.07271 15
      vertex -12.65 2.925 15
      vertex -11.9178 1.15723 15
    endloop
  endfacet
  facet normal 0.809017 0.587785 0
    outer loop
      vertex -8.7 2.925 17
      vertex -9.70193 4.30403 15
      vertex -9.70193 4.30403 17
    endloop
  endfacet
  facet normal 0.809017 0.587785 0
    outer loop
      vertex -9.70193 4.30403 15
      vertex -8.7 2.925 17
      vertex -8.7 2.925 15
    endloop
  endfacet
  facet normal -1 0 0
    outer loop
      vertex -11.3231 2.07271 15
      vertex -11.3231 3.77729 17
      vertex -11.3231 3.77729 15
    endloop
  endfacet
  facet normal -1 -0 0
    outer loop
      vertex -11.3231 3.77729 17
      vertex -11.3231 2.07271 15
      vertex -11.3231 2.07271 17
    endloop
  endfacet
  facet normal -0.309017 0.951056 0
    outer loop
      vertex -9.70193 4.30403 15
      vertex -11.3231 3.77729 17
      vertex -9.70193 4.30403 17
    endloop
  endfacet
  facet normal -0.309017 0.951056 0
    outer loop
      vertex -11.3231 3.77729 17
      vertex -9.70193 4.30403 15
      vertex -11.3231 3.77729 15
    endloop
  endfacet
  facet normal 0 0 1
    outer loop
      vertex -9.70193 4.30403 17
      vertex -9.70193 1.54597 17
      vertex -8.7 2.925 17
    endloop
  endfacet
  facet normal -0 0 1
    outer loop
      vertex -11.3231 3.77729 17
      vertex -9.70193 1.54597 17
      vertex -9.70193 4.30403 17
    endloop
  endfacet
  facet normal 0 0 1
    outer loop
      vertex -9.70193 1.54597 17
      vertex -11.3231 3.77729 17
      vertex -11.3231 2.07271 17
    endloop
  endfacet
  facet normal 0.809017 -0.587786 0
    outer loop
      vertex -9.70193 1.54597 17
      vertex -8.7 2.925 15
      vertex -8.7 2.925 17
    endloop
  endfacet
  facet normal 0.809017 -0.587786 0
    outer loop
      vertex -8.7 2.925 15
      vertex -9.70193 1.54597 17
      vertex -9.70193 1.54597 15
    endloop
  endfacet
  facet normal -0.309017 -0.951057 0
    outer loop
      vertex -11.3231 2.07271 15
      vertex -9.70193 1.54597 17
      vertex -11.3231 2.07271 17
    endloop
  endfacet
  facet normal -0.309017 -0.951057 -0
    outer loop
      vertex -9.70193 1.54597 17
      vertex -11.3231 2.07271 15
      vertex -9.70193 1.54597 15
    endloop
  endfacet
  facet normal 0.923879 0.382684 0
    outer loop
      vertex 12.65 31.075 15
      vertex 11.9178 32.8428 5
      vertex 11.9178 32.8428 15
    endloop
  endfacet
  facet normal 0.923879 0.382684 0
    outer loop
      vertex 11.9178 32.8428 5
      vertex 12.65 31.075 15
      vertex 12.65 31.075 5
    endloop
  endfacet
  facet normal -0.923879 0.382684 0
    outer loop
      vertex 7.65 31.075 5
      vertex 8.38223 32.8428 15
      vertex 8.38223 32.8428 5
    endloop
  endfacet
  facet normal -0.923879 0.382684 0
    outer loop
      vertex 8.38223 32.8428 15
      vertex 7.65 31.075 5
      vertex 7.65 31.075 15
    endloop
  endfacet
  facet normal 0.382684 0.923879 -0
    outer loop
      vertex 11.9178 32.8428 5
      vertex 10.15 33.575 15
      vertex 11.9178 32.8428 15
    endloop
  endfacet
  facet normal 0.382684 0.923879 0
    outer loop
      vertex 10.15 33.575 15
      vertex 11.9178 32.8428 5
      vertex 10.15 33.575 5
    endloop
  endfacet
  facet normal 0 0 1
    outer loop
      vertex 11.6 31.075 15
      vertex 12.65 31.075 15
      vertex 11.9178 32.8428 15
    endloop
  endfacet
  facet normal 0 0 1
    outer loop
      vertex 12.65 31.075 15
      vertex 11.6 31.075 15
      vertex 11.9178 29.3072 15
    endloop
  endfacet
  facet normal 0 0 1
    outer loop
      vertex 11.9178 32.8428 15
      vertex 10.5981 32.454 15
      vertex 11.6 31.075 15
    endloop
  endfacet
  facet normal 0 0 1
    outer loop
      vertex 10.15 33.575 15
      vertex 10.5981 32.454 15
      vertex 11.9178 32.8428 15
    endloop
  endfacet
  facet normal 0 0 1
    outer loop
      vertex 10.15 33.575 15
      vertex 8.97693 31.9273 15
      vertex 10.5981 32.454 15
    endloop
  endfacet
  facet normal 0 0 1
    outer loop
      vertex 7.65 31.075 15
      vertex 8.97693 31.9273 15
      vertex 8.38223 32.8428 15
    endloop
  endfacet
  facet normal -0 0 1
    outer loop
      vertex 8.38223 32.8428 15
      vertex 8.97693 31.9273 15
      vertex 10.15 33.575 15
    endloop
  endfacet
  facet normal -0 0 1
    outer loop
      vertex 10.5981 29.696 15
      vertex 11.9178 29.3072 15
      vertex 11.6 31.075 15
    endloop
  endfacet
  facet normal 0 0 1
    outer loop
      vertex 10.5981 29.696 15
      vertex 10.15 28.575 15
      vertex 11.9178 29.3072 15
    endloop
  endfacet
  facet normal 0 0 1
    outer loop
      vertex 8.97693 30.2227 15
      vertex 10.15 28.575 15
      vertex 10.5981 29.696 15
    endloop
  endfacet
  facet normal 0 0 1
    outer loop
      vertex 8.97693 30.2227 15
      vertex 8.38223 29.3072 15
      vertex 10.15 28.575 15
    endloop
  endfacet
  facet normal 0 0 1
    outer loop
      vertex 8.97693 31.9273 15
      vertex 7.65 31.075 15
      vertex 8.97693 30.2227 15
    endloop
  endfacet
  facet normal 0 0 1
    outer loop
      vertex 8.97693 30.2227 15
      vertex 7.65 31.075 15
      vertex 8.38223 29.3072 15
    endloop
  endfacet
  facet normal -0.382684 0.923879 0
    outer loop
      vertex 10.15 33.575 5
      vertex 8.38223 32.8428 15
      vertex 10.15 33.575 15
    endloop
  endfacet
  facet normal -0.382684 0.923879 0
    outer loop
      vertex 8.38223 32.8428 15
      vertex 10.15 33.575 5
      vertex 8.38223 32.8428 5
    endloop
  endfacet
  facet normal 0.382683 -0.92388 0
    outer loop
      vertex 10.15 28.575 5
      vertex 11.9178 29.3072 15
      vertex 10.15 28.575 15
    endloop
  endfacet
  facet normal 0.382683 -0.92388 0
    outer loop
      vertex 11.9178 29.3072 15
      vertex 10.15 28.575 5
      vertex 11.9178 29.3072 5
    endloop
  endfacet
  facet normal -0.92388 -0.382683 0
    outer loop
      vertex 8.38223 29.3072 5
      vertex 7.65 31.075 15
      vertex 7.65 31.075 5
    endloop
  endfacet
  facet normal -0.92388 -0.382683 0
    outer loop
      vertex 7.65 31.075 15
      vertex 8.38223 29.3072 5
      vertex 8.38223 29.3072 15
    endloop
  endfacet
  facet normal 0.92388 -0.382683 0
    outer loop
      vertex 11.9178 29.3072 15
      vertex 12.65 31.075 5
      vertex 12.65 31.075 15
    endloop
  endfacet
  facet normal 0.92388 -0.382683 0
    outer loop
      vertex 12.65 31.075 5
      vertex 11.9178 29.3072 15
      vertex 11.9178 29.3072 5
    endloop
  endfacet
  facet normal -0.382683 -0.92388 0
    outer loop
      vertex 8.38223 29.3072 5
      vertex 10.15 28.575 15
      vertex 8.38223 29.3072 15
    endloop
  endfacet
  facet normal -0.382683 -0.92388 -0
    outer loop
      vertex 10.15 28.575 15
      vertex 8.38223 29.3072 5
      vertex 10.15 28.575 5
    endloop
  endfacet
  facet normal 0.809017 0.587785 0
    outer loop
      vertex 11.6 31.075 17
      vertex 10.5981 32.454 15
      vertex 10.5981 32.454 17
    endloop
  endfacet
  facet normal 0.809017 0.587785 0
    outer loop
      vertex 10.5981 32.454 15
      vertex 11.6 31.075 17
      vertex 11.6 31.075 15
    endloop
  endfacet
  facet normal -1 0 0
    outer loop
      vertex 8.97693 30.2227 15
      vertex 8.97693 31.9273 17
      vertex 8.97693 31.9273 15
    endloop
  endfacet
  facet normal -1 -0 0
    outer loop
      vertex 8.97693 31.9273 17
      vertex 8.97693 30.2227 15
      vertex 8.97693 30.2227 17
    endloop
  endfacet
  facet normal -0.309018 0.951056 0
    outer loop
      vertex 10.5981 32.454 15
      vertex 8.97693 31.9273 17
      vertex 10.5981 32.454 17
    endloop
  endfacet
  facet normal -0.309018 0.951056 0
    outer loop
      vertex 8.97693 31.9273 17
      vertex 10.5981 32.454 15
      vertex 8.97693 31.9273 15
    endloop
  endfacet
  facet normal 0 0 1
    outer loop
      vertex 10.5981 32.454 17
      vertex 10.5981 29.696 17
      vertex 11.6 31.075 17
    endloop
  endfacet
  facet normal -0 0 1
    outer loop
      vertex 8.97693 31.9273 17
      vertex 10.5981 29.696 17
      vertex 10.5981 32.454 17
    endloop
  endfacet
  facet normal 0 0 1
    outer loop
      vertex 10.5981 29.696 17
      vertex 8.97693 31.9273 17
      vertex 8.97693 30.2227 17
    endloop
  endfacet
  facet normal 0.809017 -0.587785 0
    outer loop
      vertex 10.5981 29.696 17
      vertex 11.6 31.075 15
      vertex 11.6 31.075 17
    endloop
  endfacet
  facet normal 0.809017 -0.587785 0
    outer loop
      vertex 11.6 31.075 15
      vertex 10.5981 29.696 17
      vertex 10.5981 29.696 15
    endloop
  endfacet
  facet normal -0.309017 -0.951057 0
    outer loop
      vertex 8.97693 30.2227 15
      vertex 10.5981 29.696 17
      vertex 8.97693 30.2227 17
    endloop
  endfacet
  facet normal -0.309017 -0.951057 -0
    outer loop
      vertex 10.5981 29.696 17
      vertex 8.97693 30.2227 15
      vertex 10.5981 29.696 15
    endloop
  endfacet
  facet normal 0.923879 0.382684 0
    outer loop
      vertex -7.65 31.075 15
      vertex -8.38223 32.8428 5
      vertex -8.38223 32.8428 15
    endloop
  endfacet
  facet normal 0.923879 0.382684 0
    outer loop
      vertex -8.38223 32.8428 5
      vertex -7.65 31.075 15
      vertex -7.65 31.075 5
    endloop
  endfacet
  facet normal -0.923879 0.382684 0
    outer loop
      vertex -12.65 31.075 5
      vertex -11.9178 32.8428 15
      vertex -11.9178 32.8428 5
    endloop
  endfacet
  facet normal -0.923879 0.382684 0
    outer loop
      vertex -11.9178 32.8428 15
      vertex -12.65 31.075 5
      vertex -12.65 31.075 15
    endloop
  endfacet
  facet normal 0.382684 0.923879 -0
    outer loop
      vertex -8.38223 32.8428 5
      vertex -10.15 33.575 15
      vertex -8.38223 32.8428 15
    endloop
  endfacet
  facet normal 0.382684 0.923879 0
    outer loop
      vertex -10.15 33.575 15
      vertex -8.38223 32.8428 5
      vertex -10.15 33.575 5
    endloop
  endfacet
  facet normal 0 0 1
    outer loop
      vertex -8.7 31.075 15
      vertex -7.65 31.075 15
      vertex -8.38223 32.8428 15
    endloop
  endfacet
  facet normal 0 0 1
    outer loop
      vertex -7.65 31.075 15
      vertex -8.7 31.075 15
      vertex -8.38223 29.3072 15
    endloop
  endfacet
  facet normal 0 0 1
    outer loop
      vertex -8.38223 32.8428 15
      vertex -9.70193 32.454 15
      vertex -8.7 31.075 15
    endloop
  endfacet
  facet normal 0 0 1
    outer loop
      vertex -10.15 33.575 15
      vertex -9.70193 32.454 15
      vertex -8.38223 32.8428 15
    endloop
  endfacet
  facet normal 0 0 1
    outer loop
      vertex -10.15 33.575 15
      vertex -11.3231 31.9273 15
      vertex -9.70193 32.454 15
    endloop
  endfacet
  facet normal 0 0 1
    outer loop
      vertex -12.65 31.075 15
      vertex -11.3231 31.9273 15
      vertex -11.9178 32.8428 15
    endloop
  endfacet
  facet normal -0 0 1
    outer loop
      vertex -11.9178 32.8428 15
      vertex -11.3231 31.9273 15
      vertex -10.15 33.575 15
    endloop
  endfacet
  facet normal -0 0 1
    outer loop
      vertex -9.70193 29.696 15
      vertex -8.38223 29.3072 15
      vertex -8.7 31.075 15
    endloop
  endfacet
  facet normal 0 0 1
    outer loop
      vertex -9.70193 29.696 15
      vertex -10.15 28.575 15
      vertex -8.38223 29.3072 15
    endloop
  endfacet
  facet normal 0 0 1
    outer loop
      vertex -11.3231 30.2227 15
      vertex -10.15 28.575 15
      vertex -9.70193 29.696 15
    endloop
  endfacet
  facet normal 0 0 1
    outer loop
      vertex -11.3231 30.2227 15
      vertex -11.9178 29.3072 15
      vertex -10.15 28.575 15
    endloop
  endfacet
  facet normal 0 0 1
    outer loop
      vertex -11.3231 31.9273 15
      vertex -12.65 31.075 15
      vertex -11.3231 30.2227 15
    endloop
  endfacet
  facet normal 0 0 1
    outer loop
      vertex -11.3231 30.2227 15
      vertex -12.65 31.075 15
      vertex -11.9178 29.3072 15
    endloop
  endfacet
  facet normal -0.382684 0.923879 0
    outer loop
      vertex -10.15 33.575 5
      vertex -11.9178 32.8428 15
      vertex -10.15 33.575 15
    endloop
  endfacet
  facet normal -0.382684 0.923879 0
    outer loop
      vertex -11.9178 32.8428 15
      vertex -10.15 33.575 5
      vertex -11.9178 32.8428 5
    endloop
  endfacet
  facet normal 0.382683 -0.92388 0
    outer loop
      vertex -10.15 28.575 5
      vertex -8.38223 29.3072 15
      vertex -10.15 28.575 15
    endloop
  endfacet
  facet normal 0.382683 -0.92388 0
    outer loop
      vertex -8.38223 29.3072 15
      vertex -10.15 28.575 5
      vertex -8.38223 29.3072 5
    endloop
  endfacet
  facet normal -0.92388 -0.382683 0
    outer loop
      vertex -11.9178 29.3072 5
      vertex -12.65 31.075 15
      vertex -12.65 31.075 5
    endloop
  endfacet
  facet normal -0.92388 -0.382683 0
    outer loop
      vertex -12.65 31.075 15
      vertex -11.9178 29.3072 5
      vertex -11.9178 29.3072 15
    endloop
  endfacet
  facet normal 0.92388 -0.382683 0
    outer loop
      vertex -8.38223 29.3072 15
      vertex -7.65 31.075 5
      vertex -7.65 31.075 15
    endloop
  endfacet
  facet normal 0.92388 -0.382683 0
    outer loop
      vertex -7.65 31.075 5
      vertex -8.38223 29.3072 15
      vertex -8.38223 29.3072 5
    endloop
  endfacet
  facet normal -0.382683 -0.92388 0
    outer loop
      vertex -11.9178 29.3072 5
      vertex -10.15 28.575 15
      vertex -11.9178 29.3072 15
    endloop
  endfacet
  facet normal -0.382683 -0.92388 -0
    outer loop
      vertex -10.15 28.575 15
      vertex -11.9178 29.3072 5
      vertex -10.15 28.575 5
    endloop
  endfacet
  facet normal 0.809017 0.587785 0
    outer loop
      vertex -8.7 31.075 17
      vertex -9.70193 32.454 15
      vertex -9.70193 32.454 17
    endloop
  endfacet
  facet normal 0.809017 0.587785 0
    outer loop
      vertex -9.70193 32.454 15
      vertex -8.7 31.075 17
      vertex -8.7 31.075 15
    endloop
  endfacet
  facet normal -1 0 0
    outer loop
      vertex -11.3231 30.2227 15
      vertex -11.3231 31.9273 17
      vertex -11.3231 31.9273 15
    endloop
  endfacet
  facet normal -1 -0 0
    outer loop
      vertex -11.3231 31.9273 17
      vertex -11.3231 30.2227 15
      vertex -11.3231 30.2227 17
    endloop
  endfacet
  facet normal -0.309018 0.951056 0
    outer loop
      vertex -9.70193 32.454 15
      vertex -11.3231 31.9273 17
      vertex -9.70193 32.454 17
    endloop
  endfacet
  facet normal -0.309018 0.951056 0
    outer loop
      vertex -11.3231 31.9273 17
      vertex -9.70193 32.454 15
      vertex -11.3231 31.9273 15
    endloop
  endfacet
  facet normal 0 0 1
    outer loop
      vertex -9.70193 32.454 17
      vertex -9.70193 29.696 17
      vertex -8.7 31.075 17
    endloop
  endfacet
  facet normal -0 0 1
    outer loop
      vertex -11.3231 31.9273 17
      vertex -9.70193 29.696 17
      vertex -9.70193 32.454 17
    endloop
  endfacet
  facet normal 0 0 1
    outer loop
      vertex -9.70193 29.696 17
      vertex -11.3231 31.9273 17
      vertex -11.3231 30.2227 17
    endloop
  endfacet
  facet normal 0.809017 -0.587785 0
    outer loop
      vertex -9.70193 29.696 17
      vertex -8.7 31.075 15
      vertex -8.7 31.075 17
    endloop
  endfacet
  facet normal 0.809017 -0.587785 0
    outer loop
      vertex -8.7 31.075 15
      vertex -9.70193 29.696 17
      vertex -9.70193 29.696 15
    endloop
  endfacet
  facet normal -0.309017 -0.951057 0
    outer loop
      vertex -11.3231 30.2227 15
      vertex -9.70193 29.696 17
      vertex -11.3231 30.2227 17
    endloop
  endfacet
  facet normal -0.309017 -0.951057 -0
    outer loop
      vertex -9.70193 29.696 17
      vertex -11.3231 30.2227 15
      vertex -9.70193 29.696 15
    endloop
  endfacet
  facet normal -1 0 0
    outer loop
      vertex -13 0 0
      vertex -13 34 5
      vertex -13 34 0
    endloop
  endfacet
  facet normal -1 -0 0
    outer loop
      vertex -13 34 5
      vertex -13 0 0
      vertex -13 0 5
    endloop
  endfacet
  facet normal 1 -0 0
    outer loop
      vertex 13 0 5
      vertex 13 34 0
      vertex 13 34 5
    endloop
  endfacet
  facet normal 1 0 0
    outer loop
      vertex 13 34 0
      vertex 13 0 5
      vertex 13 0 0
    endloop
  endfacet
  facet normal 0 1 -0
    outer loop
      vertex 13 34 0
      vertex -13 34 5
      vertex 13 34 5
    endloop
  endfacet
  facet normal 0 1 0
    outer loop
      vertex -13 34 5
      vertex 13 34 0
      vertex -13 34 0
    endloop
  endfacet
  facet normal 0 0 -1
    outer loop
      vertex 0.448074 9.87903 0
      vertex 1.45 25.5 0
      vertex 1.45 8.5 0
    endloop
  endfacet
  facet normal 0 0 -1
    outer loop
      vertex 0.448074 9.87903 0
      vertex 0.448074 24.121 0
      vertex 1.45 25.5 0
    endloop
  endfacet
  facet normal 0 0 -1
    outer loop
      vertex -1.17307 9.35229 0
      vertex 0.448074 24.121 0
      vertex 0.448074 9.87903 0
    endloop
  endfacet
  facet normal -0 0 -1
    outer loop
      vertex 0.448074 24.121 0
      vertex -1.17307 9.35229 0
      vertex -1.17307 24.6477 0
    endloop
  endfacet
  facet normal 0 0 -1
    outer loop
      vertex 13 0 0
      vertex 1.45 8.5 0
      vertex 13 34 0
    endloop
  endfacet
  facet normal 0 0 -1
    outer loop
      vertex 13 0 0
      vertex 0.448074 7.12097 0
      vertex 1.45 8.5 0
    endloop
  endfacet
  facet normal 0 0 -1
    outer loop
      vertex -13 0 0
      vertex 0.448074 7.12097 0
      vertex 13 0 0
    endloop
  endfacet
  facet normal 0 0 -1
    outer loop
      vertex -13 0 0
      vertex -1.17307 9.35229 0
      vertex -1.17307 7.64771 0
    endloop
  endfacet
  facet normal -0 0 -1
    outer loop
      vertex -1.17307 9.35229 0
      vertex -13 0 0
      vertex -1.17307 24.6477 0
    endloop
  endfacet
  facet normal 0 0 -1
    outer loop
      vertex -13 34 0
      vertex -1.17307 24.6477 0
      vertex -13 0 0
    endloop
  endfacet
  facet normal -0 0 -1
    outer loop
      vertex 0.448074 7.12097 0
      vertex -13 0 0
      vertex -1.17307 7.64771 0
    endloop
  endfacet
  facet normal 0 0 -1
    outer loop
      vertex 1.45 25.5 0
      vertex 13 34 0
      vertex 1.45 8.5 0
    endloop
  endfacet
  facet normal 0 0 -1
    outer loop
      vertex 0.448074 26.879 0
      vertex 13 34 0
      vertex 1.45 25.5 0
    endloop
  endfacet
  facet normal 0 0 -1
    outer loop
      vertex -13 34 0
      vertex 0.448074 26.879 0
      vertex -1.17307 26.3523 0
    endloop
  endfacet
  facet normal 0 0 -1
    outer loop
      vertex 0.448074 26.879 0
      vertex -13 34 0
      vertex 13 34 0
    endloop
  endfacet
  facet normal 0 0 -1
    outer loop
      vertex -1.17307 24.6477 0
      vertex -13 34 0
      vertex -1.17307 26.3523 0
    endloop
  endfacet
  facet normal 0 -1 0
    outer loop
      vertex -13 0 0
      vertex 13 0 5
      vertex -13 0 5
    endloop
  endfacet
  facet normal 0 -1 -0
    outer loop
      vertex 13 0 5
      vertex -13 0 0
      vertex 13 0 0
    endloop
  endfacet
  facet normal -0.809017 -0.587786 0
    outer loop
      vertex 1.45 8.5 0
      vertex 0.448074 9.87903 3
      vertex 0.448074 9.87903 0
    endloop
  endfacet
  facet normal -0.809017 -0.587786 0
    outer loop
      vertex 0.448074 9.87903 3
      vertex 1.45 8.5 0
      vertex 1.45 8.5 3
    endloop
  endfacet
  facet normal 1 -0 0
    outer loop
      vertex -1.17307 7.64771 3
      vertex -1.17307 9.35229 0
      vertex -1.17307 9.35229 3
    endloop
  endfacet
  facet normal 1 0 0
    outer loop
      vertex -1.17307 9.35229 0
      vertex -1.17307 7.64771 3
      vertex -1.17307 7.64771 0
    endloop
  endfacet
  facet normal 0.309017 -0.951057 0
    outer loop
      vertex -1.17307 9.35229 0
      vertex 0.448074 9.87903 3
      vertex -1.17307 9.35229 3
    endloop
  endfacet
  facet normal 0.309017 -0.951057 0
    outer loop
      vertex 0.448074 9.87903 3
      vertex -1.17307 9.35229 0
      vertex 0.448074 9.87903 0
    endloop
  endfacet
  facet normal -0.809017 0.587785 0
    outer loop
      vertex 0.448074 7.12097 0
      vertex 1.45 8.5 3
      vertex 1.45 8.5 0
    endloop
  endfacet
  facet normal -0.809017 0.587785 0
    outer loop
      vertex 1.45 8.5 3
      vertex 0.448074 7.12097 0
      vertex 0.448074 7.12097 3
    endloop
  endfacet
  facet normal 0.309017 0.951057 -0
    outer loop
      vertex 0.448074 7.12097 0
      vertex -1.17307 7.64771 3
      vertex 0.448074 7.12097 3
    endloop
  endfacet
  facet normal 0.309017 0.951057 0
    outer loop
      vertex -1.17307 7.64771 3
      vertex 0.448074 7.12097 0
      vertex -1.17307 7.64771 0
    endloop
  endfacet
  facet normal -0.694747 -0.186157 0.694747
    outer loop
      vertex 1.65 8.5 3
      vertex 3.65 8.5 5
      vertex 1.42894 9.325 3
    endloop
  endfacet
  facet normal -0.694747 0.186157 0.694747
    outer loop
      vertex 3.16099 6.675 5
      vertex 3.65 8.5 5
      vertex 1.42894 7.675 3
    endloop
  endfacet
  facet normal -0.186157 -0.694747 0.694747
    outer loop
      vertex 0.825 9.92894 3
      vertex 0 12.15 5
      vertex 0 10.15 3
    endloop
  endfacet
  facet normal 0.50859 0.50859 0.694747
    outer loop
      vertex -1.42894 7.675 3
      vertex -1.825 5.33901 5
      vertex -0.825 7.07106 3
    endloop
  endfacet
  facet normal 0.50859 0.50859 0.694747
    outer loop
      vertex -1.825 5.33901 5
      vertex -1.42894 7.675 3
      vertex -3.16099 6.675 5
    endloop
  endfacet
  facet normal -0.50859 0.50859 0.694747
    outer loop
      vertex 1.42894 7.675 3
      vertex 1.825 5.33901 5
      vertex 3.16099 6.675 5
    endloop
  endfacet
  facet normal -0.50859 0.50859 0.694747
    outer loop
      vertex 1.825 5.33901 5
      vertex 1.42894 7.675 3
      vertex 0.825 7.07106 3
    endloop
  endfacet
  facet normal 0.694747 -0.186157 0.694747
    outer loop
      vertex -1.42894 9.325 3
      vertex -3.16099 10.325 5
      vertex -3.65 8.5 5
    endloop
  endfacet
  facet normal 0.50859 -0.50859 0.694747
    outer loop
      vertex -1.825 11.661 5
      vertex -1.42894 9.325 3
      vertex -0.825 9.92894 3
    endloop
  endfacet
  facet normal 0.50859 -0.50859 0.694747
    outer loop
      vertex -1.42894 9.325 3
      vertex -1.825 11.661 5
      vertex -3.16099 10.325 5
    endloop
  endfacet
  facet normal -0.694747 -0.186157 0.694747
    outer loop
      vertex 3.65 8.5 5
      vertex 3.16099 10.325 5
      vertex 1.42894 9.325 3
    endloop
  endfacet
  facet normal 0.186157 0.694747 0.694747
    outer loop
      vertex 0 4.85 5
      vertex -0.825 7.07106 3
      vertex -1.825 5.33901 5
    endloop
  endfacet
  facet normal 0 0 1
    outer loop
      vertex 1.42894 9.325 3
      vertex 1.45 8.5 3
      vertex 1.65 8.5 3
    endloop
  endfacet
  facet normal -0 0 1
    outer loop
      vertex 0.448074 9.87903 3
      vertex 1.42894 9.325 3
      vertex 0.825 9.92894 3
    endloop
  endfacet
  facet normal 0 0 1
    outer loop
      vertex 1.42894 9.325 3
      vertex 0.448074 9.87903 3
      vertex 1.45 8.5 3
    endloop
  endfacet
  facet normal 0 0 1
    outer loop
      vertex 0 10.15 3
      vertex 0.448074 9.87903 3
      vertex 0.825 9.92894 3
    endloop
  endfacet
  facet normal -0 0 1
    outer loop
      vertex -0.825 9.92894 3
      vertex 0.448074 9.87903 3
      vertex 0 10.15 3
    endloop
  endfacet
  facet normal 0 0 1
    outer loop
      vertex -0.825 9.92894 3
      vertex -1.17307 9.35229 3
      vertex 0.448074 9.87903 3
    endloop
  endfacet
  facet normal 0 0 1
    outer loop
      vertex -1.65 8.5 3
      vertex -1.17307 9.35229 3
      vertex -1.42894 9.325 3
    endloop
  endfacet
  facet normal 0 0 1
    outer loop
      vertex -1.42894 9.325 3
      vertex -1.17307 9.35229 3
      vertex -0.825 9.92894 3
    endloop
  endfacet
  facet normal -0 0 1
    outer loop
      vertex 1.45 8.5 3
      vertex 1.42894 7.675 3
      vertex 1.65 8.5 3
    endloop
  endfacet
  facet normal 0 0 1
    outer loop
      vertex 0.448074 7.12097 3
      vertex 1.42894 7.675 3
      vertex 1.45 8.5 3
    endloop
  endfacet
  facet normal 0 0 1
    outer loop
      vertex 1.42894 7.675 3
      vertex 0.448074 7.12097 3
      vertex 0.825 7.07106 3
    endloop
  endfacet
  facet normal 0 0 1
    outer loop
      vertex 0.448074 7.12097 3
      vertex 0 6.85 3
      vertex 0.825 7.07106 3
    endloop
  endfacet
  facet normal 0 0 1
    outer loop
      vertex 0.448074 7.12097 3
      vertex -0.825 7.07106 3
      vertex 0 6.85 3
    endloop
  endfacet
  facet normal 0 0 1
    outer loop
      vertex -1.17307 7.64771 3
      vertex -0.825 7.07106 3
      vertex 0.448074 7.12097 3
    endloop
  endfacet
  facet normal 0 0 1
    outer loop
      vertex -1.17307 7.64771 3
      vertex -1.42894 7.675 3
      vertex -0.825 7.07106 3
    endloop
  endfacet
  facet normal 0 0 1
    outer loop
      vertex -1.17307 9.35229 3
      vertex -1.65 8.5 3
      vertex -1.17307 7.64771 3
    endloop
  endfacet
  facet normal 0 0 1
    outer loop
      vertex -1.17307 7.64771 3
      vertex -1.65 8.5 3
      vertex -1.42894 7.675 3
    endloop
  endfacet
  facet normal 0.694747 0.186157 0.694747
    outer loop
      vertex -3.16099 6.675 5
      vertex -1.42894 7.675 3
      vertex -3.65 8.5 5
    endloop
  endfacet
  facet normal 0.186157 -0.694747 0.694747
    outer loop
      vertex 0 10.15 3
      vertex 0 12.15 5
      vertex -0.825 9.92894 3
    endloop
  endfacet
  facet normal 0.186157 -0.694747 0.694747
    outer loop
      vertex -0.825 9.92894 3
      vertex 0 12.15 5
      vertex -1.825 11.661 5
    endloop
  endfacet
  facet normal -0.186157 -0.694747 0.694747
    outer loop
      vertex 0.825 9.92894 3
      vertex 1.825 11.661 5
      vertex 0 12.15 5
    endloop
  endfacet
  facet normal -0.50859 -0.50859 0.694747
    outer loop
      vertex 1.825 11.661 5
      vertex 1.42894 9.325 3
      vertex 3.16099 10.325 5
    endloop
  endfacet
  facet normal -0.50859 -0.50859 0.694747
    outer loop
      vertex 1.42894 9.325 3
      vertex 1.825 11.661 5
      vertex 0.825 9.92894 3
    endloop
  endfacet
  facet normal -0.694747 0.186156 0.694747
    outer loop
      vertex 3.65 8.5 5
      vertex 1.65 8.5 3
      vertex 1.42894 7.675 3
    endloop
  endfacet
  facet normal 0.186157 0.694747 0.694747
    outer loop
      vertex 0 4.85 5
      vertex 0 6.85 3
      vertex -0.825 7.07106 3
    endloop
  endfacet
  facet normal 0.694747 0.186156 0.694747
    outer loop
      vertex -1.42894 7.675 3
      vertex -1.65 8.5 3
      vertex -3.65 8.5 5
    endloop
  endfacet
  facet normal 0.694747 -0.186157 0.694747
    outer loop
      vertex -1.65 8.5 3
      vertex -1.42894 9.325 3
      vertex -3.65 8.5 5
    endloop
  endfacet
  facet normal -0.186157 0.694747 0.694747
    outer loop
      vertex 0.825 7.07106 3
      vertex 0 6.85 3
      vertex 0 4.85 5
    endloop
  endfacet
  facet normal -0.186157 0.694747 0.694747
    outer loop
      vertex 1.825 5.33901 5
      vertex 0.825 7.07106 3
      vertex 0 4.85 5
    endloop
  endfacet
  facet normal -0.809017 -0.587785 0
    outer loop
      vertex 1.45 25.5 0
      vertex 0.448074 26.879 3
      vertex 0.448074 26.879 0
    endloop
  endfacet
  facet normal -0.809017 -0.587785 0
    outer loop
      vertex 0.448074 26.879 3
      vertex 1.45 25.5 0
      vertex 1.45 25.5 3
    endloop
  endfacet
  facet normal 1 -0 0
    outer loop
      vertex -1.17307 24.6477 3
      vertex -1.17307 26.3523 0
      vertex -1.17307 26.3523 3
    endloop
  endfacet
  facet normal 1 0 0
    outer loop
      vertex -1.17307 26.3523 0
      vertex -1.17307 24.6477 3
      vertex -1.17307 24.6477 0
    endloop
  endfacet
  facet normal 0.309018 -0.951056 0
    outer loop
      vertex -1.17307 26.3523 0
      vertex 0.448074 26.879 3
      vertex -1.17307 26.3523 3
    endloop
  endfacet
  facet normal 0.309018 -0.951056 0
    outer loop
      vertex 0.448074 26.879 3
      vertex -1.17307 26.3523 0
      vertex 0.448074 26.879 0
    endloop
  endfacet
  facet normal -0.809017 0.587785 0
    outer loop
      vertex 0.448074 24.121 0
      vertex 1.45 25.5 3
      vertex 1.45 25.5 0
    endloop
  endfacet
  facet normal -0.809017 0.587785 0
    outer loop
      vertex 1.45 25.5 3
      vertex 0.448074 24.121 0
      vertex 0.448074 24.121 3
    endloop
  endfacet
  facet normal 0.309017 0.951057 -0
    outer loop
      vertex 0.448074 24.121 0
      vertex -1.17307 24.6477 3
      vertex 0.448074 24.121 3
    endloop
  endfacet
  facet normal 0.309017 0.951057 0
    outer loop
      vertex -1.17307 24.6477 3
      vertex 0.448074 24.121 0
      vertex -1.17307 24.6477 0
    endloop
  endfacet
  facet normal -0.694747 -0.186156 0.694747
    outer loop
      vertex 1.65 25.5 3
      vertex 3.65 25.5 5
      vertex 1.42894 26.325 3
    endloop
  endfacet
  facet normal -0.694747 0.186157 0.694747
    outer loop
      vertex 3.16099 23.675 5
      vertex 3.65 25.5 5
      vertex 1.42894 24.675 3
    endloop
  endfacet
  facet normal -0.186157 -0.694747 0.694747
    outer loop
      vertex 0.825 26.9289 3
      vertex 0 29.15 5
      vertex 0 27.15 3
    endloop
  endfacet
  facet normal 0.50859 0.50859 0.694746
    outer loop
      vertex -1.42894 24.675 3
      vertex -1.825 22.339 5
      vertex -0.825 24.0711 3
    endloop
  endfacet
  facet normal 0.50859 0.50859 0.694747
    outer loop
      vertex -1.825 22.339 5
      vertex -1.42894 24.675 3
      vertex -3.16099 23.675 5
    endloop
  endfacet
  facet normal -0.50859 0.50859 0.694747
    outer loop
      vertex 1.42894 24.675 3
      vertex 1.825 22.339 5
      vertex 3.16099 23.675 5
    endloop
  endfacet
  facet normal -0.50859 0.50859 0.694746
    outer loop
      vertex 1.825 22.339 5
      vertex 1.42894 24.675 3
      vertex 0.825 24.0711 3
    endloop
  endfacet
  facet normal 0.694747 -0.186157 0.694747
    outer loop
      vertex -1.42894 26.325 3
      vertex -3.16099 27.325 5
      vertex -3.65 25.5 5
    endloop
  endfacet
  facet normal 0.508589 -0.50859 0.694747
    outer loop
      vertex -1.825 28.661 5
      vertex -1.42894 26.325 3
      vertex -0.825 26.9289 3
    endloop
  endfacet
  facet normal 0.508589 -0.50859 0.694747
    outer loop
      vertex -1.42894 26.325 3
      vertex -1.825 28.661 5
      vertex -3.16099 27.325 5
    endloop
  endfacet
  facet normal -0.694747 -0.186157 0.694747
    outer loop
      vertex 3.65 25.5 5
      vertex 3.16099 27.325 5
      vertex 1.42894 26.325 3
    endloop
  endfacet
  facet normal 0.186157 0.694747 0.694746
    outer loop
      vertex 0 21.85 5
      vertex -0.825 24.0711 3
      vertex -1.825 22.339 5
    endloop
  endfacet
  facet normal 0 0 1
    outer loop
      vertex 1.42894 26.325 3
      vertex 1.45 25.5 3
      vertex 1.65 25.5 3
    endloop
  endfacet
  facet normal -0 0 1
    outer loop
      vertex 0.448074 26.879 3
      vertex 1.42894 26.325 3
      vertex 0.825 26.9289 3
    endloop
  endfacet
  facet normal 0 0 1
    outer loop
      vertex 1.42894 26.325 3
      vertex 0.448074 26.879 3
      vertex 1.45 25.5 3
    endloop
  endfacet
  facet normal 0 0 1
    outer loop
      vertex 0 27.15 3
      vertex 0.448074 26.879 3
      vertex 0.825 26.9289 3
    endloop
  endfacet
  facet normal -0 0 1
    outer loop
      vertex -0.825 26.9289 3
      vertex 0.448074 26.879 3
      vertex 0 27.15 3
    endloop
  endfacet
  facet normal 0 0 1
    outer loop
      vertex -0.825 26.9289 3
      vertex -1.17307 26.3523 3
      vertex 0.448074 26.879 3
    endloop
  endfacet
  facet normal 0 0 1
    outer loop
      vertex -1.65 25.5 3
      vertex -1.17307 26.3523 3
      vertex -1.42894 26.325 3
    endloop
  endfacet
  facet normal 0 0 1
    outer loop
      vertex -1.42894 26.325 3
      vertex -1.17307 26.3523 3
      vertex -0.825 26.9289 3
    endloop
  endfacet
  facet normal -0 0 1
    outer loop
      vertex 1.45 25.5 3
      vertex 1.42894 24.675 3
      vertex 1.65 25.5 3
    endloop
  endfacet
  facet normal 0 0 1
    outer loop
      vertex 0.448074 24.121 3
      vertex 1.42894 24.675 3
      vertex 1.45 25.5 3
    endloop
  endfacet
  facet normal 0 0 1
    outer loop
      vertex 1.42894 24.675 3
      vertex 0.448074 24.121 3
      vertex 0.825 24.0711 3
    endloop
  endfacet
  facet normal 0 0 1
    outer loop
      vertex 0.448074 24.121 3
      vertex 0 23.85 3
      vertex 0.825 24.0711 3
    endloop
  endfacet
  facet normal 0 0 1
    outer loop
      vertex 0.448074 24.121 3
      vertex -0.825 24.0711 3
      vertex 0 23.85 3
    endloop
  endfacet
  facet normal 0 0 1
    outer loop
      vertex -1.17307 24.6477 3
      vertex -0.825 24.0711 3
      vertex 0.448074 24.121 3
    endloop
  endfacet
  facet normal 0 0 1
    outer loop
      vertex -1.17307 24.6477 3
      vertex -1.42894 24.675 3
      vertex -0.825 24.0711 3
    endloop
  endfacet
  facet normal 0 0 1
    outer loop
      vertex -1.17307 26.3523 3
      vertex -1.65 25.5 3
      vertex -1.17307 24.6477 3
    endloop
  endfacet
  facet normal 0 0 1
    outer loop
      vertex -1.17307 24.6477 3
      vertex -1.65 25.5 3
      vertex -1.42894 24.675 3
    endloop
  endfacet
  facet normal 0.694747 0.186157 0.694747
    outer loop
      vertex -3.16099 23.675 5
      vertex -1.42894 24.675 3
      vertex -3.65 25.5 5
    endloop
  endfacet
  facet normal 0.186157 -0.694747 0.694747
    outer loop
      vertex 0 27.15 3
      vertex 0 29.15 5
      vertex -0.825 26.9289 3
    endloop
  endfacet
  facet normal 0.186157 -0.694747 0.694746
    outer loop
      vertex -0.825 26.9289 3
      vertex 0 29.15 5
      vertex -1.825 28.661 5
    endloop
  endfacet
  facet normal -0.186157 -0.694747 0.694746
    outer loop
      vertex 0.825 26.9289 3
      vertex 1.825 28.661 5
      vertex 0 29.15 5
    endloop
  endfacet
  facet normal -0.508589 -0.50859 0.694747
    outer loop
      vertex 1.825 28.661 5
      vertex 1.42894 26.325 3
      vertex 3.16099 27.325 5
    endloop
  endfacet
  facet normal -0.508589 -0.50859 0.694747
    outer loop
      vertex 1.42894 26.325 3
      vertex 1.825 28.661 5
      vertex 0.825 26.9289 3
    endloop
  endfacet
  facet normal -0.694747 0.186156 0.694747
    outer loop
      vertex 3.65 25.5 5
      vertex 1.65 25.5 3
      vertex 1.42894 24.675 3
    endloop
  endfacet
  facet normal 0.186157 0.694747 0.694747
    outer loop
      vertex 0 21.85 5
      vertex 0 23.85 3
      vertex -0.825 24.0711 3
    endloop
  endfacet
  facet normal 0.694747 0.186156 0.694747
    outer loop
      vertex -1.42894 24.675 3
      vertex -1.65 25.5 3
      vertex -3.65 25.5 5
    endloop
  endfacet
  facet normal 0.694747 -0.186156 0.694747
    outer loop
      vertex -1.65 25.5 3
      vertex -1.42894 26.325 3
      vertex -3.65 25.5 5
    endloop
  endfacet
  facet normal -0.186157 0.694747 0.694747
    outer loop
      vertex 0.825 24.0711 3
      vertex 0 23.85 3
      vertex 0 21.85 5
    endloop
  endfacet
  facet normal -0.186157 0.694747 0.694746
    outer loop
      vertex 1.825 22.339 5
      vertex 0.825 24.0711 3
      vertex 0 21.85 5
    endloop
  endfacet
endsolid OpenSCAD_Model
